<?xml version="1.0" standalone="no"?>
<!DOCTYPE svg PUBLIC "-//W3C//DTD SVG 20010904//EN"
 "http://www.w3.org/TR/2001/REC-SVG-20010904/DTD/svg10.dtd">
<svg version="1.0" xmlns="http://www.w3.org/2000/svg"
 width="200" height="200" viewBox="0 0 200 200"
 preserveAspectRatio="xMidYMid meet">
<g>
  <rect width="200" height="200" style="fill:#363636"/>
</g>
<g transform="translate(0,200) scale(0.1,-0.1)"
fill="#232323" stroke="none">
  <path d="M673 1659 c-69 -22 -146 -75 -194 -134 -131 -163 -119 -410 27 -560
  25 -26 44 -48 42 -49 -109 -51 -152 -80 -229 -156 -74 -73 -93 -100 -132 -180
  -82 -173 -83 -250 -2 -250 41 0 57 20 75 95 31 132 165 293 293 354 322 153
  681 -7 791 -351 15 -48 34 -89 42 -92 49 -19 94 9 94 58 0 36 -35 139 -71 206
  -61 114 -167 220 -284 281 -33 18 -62 33 -64 35 -2 2 17 26 42 54 148 165 153
  402 12 567 -104 122 -285 172 -442 122z m255 -135 c171 -85 217 -315 91 -458
  -168 -190 -476 -91 -506 163 -12 100 39 214 121 270 58 40 91 49 172 50 56 1
  80 -4 122 -25z"/>
  <path d="M1165 1660 c-21 -23 -23 -66 -4 -85 8 -8 42 -18 77 -24 168 -27 275
  -161 258 -324 -9 -87 -47 -161 -116 -229 -33 -32 -60 -66 -60 -77 0 -31 32
  -59 92 -79 73 -26 157 -82 209 -140 53 -60 115 -188 133 -275 17 -82 28 -97
  72 -97 53 0 68 32 54 112 -17 94 -64 207 -120 285 -54 78 -107 127 -192 180
  l-58 36 20 28 c11 15 35 58 53 96 31 65 32 74 32 188 0 115 -1 123 -32 186
  -56 113 -152 193 -268 223 -81 22 -128 21 -150 -4z" fill="currentColor"/>
</g>
</svg>
